# xmcd CD database file
#
# Track frame offsets:
#	150
#	16567
#	36778
#	57089
#	77925
#	103890
#	122805
#	141819
#	177854
#	206677
#	225943
#	249908
#	278380
#	298356
#
# Disc length: 4302 seconds
#
# Revision: 0
# Processed by: cddbd v1.5.2PL0 Copyright (c) Steve Scherf et al.
# Submitted via: CDex 1.70beta2
#
DISCID=ba10cc0e
DTITLE=Barrelhouse Jazzband - Highlights Live - CD 2
DYEAR=2005
DGENRE=Jazz
TTITLE0=Grandpa`s Spells
TTITLE1=Trouble In Mind
TTITLE2=Sugar Foot Stomp
TTITLE3=I´m Crazy Bout My Baby
TTITLE4=Mood Indigo
TTITLE5=That`s A Plenty
TTITLE6=One O`clock Jump
TTITLE7=Down In Honky Tonk Town
TTITLE8=Martinique
TTITLE9=Just Gone
TTITLE10=Snag It
TTITLE11=I Let A Song Go Out Of My Heart
TTITLE12=Just A Little While To Stay Here
TTITLE13=New Orleans Brassband Boogie
EXTD=YEAR: 2005
EXTT0=
EXTT1=
EXTT2=
EXTT3=
EXTT4=
EXTT5=
EXTT6=
EXTT7=
EXTT8=
EXTT9=
EXTT10=
EXTT11=
EXTT12=
EXTT13=
PLAYORDER=
